<?xml version="1.0" standalone="no"?>
<!DOCTYPE svg PUBLIC "-//W3C//DTD SVG 1.0//EN" "http://www.w3.org/TR/2001/REC-SVG-20010904/DTD/svg10.dtd">
<svg xmlns="http://www.w3.org/2000/svg" xmlns:xlink="http://www.w3.org/1999/xlink" id="body_1" width="128" height="128">

<defs>
        <clipPath  id="1">

            <path clip-rule="evenodd" d="M0 0L2267.717 0L2267.717 2267.717L0 2267.717z" />        </clipPath>
</defs>

<g transform="matrix(0.056444433 0 0 0.056444433 0 0)">
	<g clip-path="url(#1)" >
        <path d="M143.561 943.779L419.07 693.962C 516.888 605.267 668.313 612.673 757.009 710.49L757.009 710.49L1006.825 985.999C 1095.521 1083.817 1088.115 1235.242 990.297 1323.938L990.297 1323.938L714.788 1573.754C 616.97 1662.45 465.545 1655.044 376.85 1557.226L376.85 1557.226L127.033 1281.717C 38.337 1183.899 45.743 1032.474 143.561 943.779z" stroke="none" fill="#BD9354" fill-rule="nonzero" />
        <path d="M1608.889 112.039L1972.395 190.631C 2101.456 218.535 2183.582 345.97 2155.678 475.031L2155.678 475.031L2077.085 838.537C 2049.181 967.597 1921.746 1049.724 1792.686 1021.82L1792.686 1021.82L1429.18 943.227C 1300.119 915.323 1217.993 787.888 1245.897 658.828L1245.897 658.828L1324.49 295.321C 1352.394 166.261 1479.829 84.135 1608.889 112.039z" stroke="none" fill="#D2D3D3" fill-rule="nonzero" />
        <path d="M1237.377 1675.863L1404.481 1343.614C 1463.81 1225.651 1607.749 1178.047 1725.712 1237.377L1725.712 1237.377L2057.961 1404.481C 2175.924 1463.81 2223.527 1607.749 2164.198 1725.712L2164.198 1725.712L1997.094 2057.961C 1937.765 2175.924 1793.826 2223.527 1675.863 2164.198L1675.863 2164.198L1343.614 1997.094C 1225.651 1937.765 1178.047 1793.826 1237.377 1675.863z" stroke="none" fill="#545454" fill-rule="nonzero" />
	</g>
</g>
</svg>