<svg xmlns="http://www.w3.org/2000/svg" xmlns:xlink="http://www.w3.org/1999/xlink" width="3023.622721" height="3023.622721"><defs><clipPath id="a"><path d="M0 0h3024v3024H0z"/></clipPath><g id="b" clip-path="url(#a)"><path fill="#BD9354" d="M191.414062 1258.371094 558.761719 925.28125c130.421875-118.257812 332.324219-108.382812 450.582031 22.039062l333.089844 367.34375c118.261718 130.425782 108.386718 332.324219-22.039063 450.585938l-367.34375 333.089844c-130.425781 118.261718-332.324219 108.386718-450.585937-22.039063l-333.085938-367.34375c-118.261718-130.425781-108.386718-332.324219 22.035156-450.585937m0 0"/><path fill="#D2D3D3" d="M570.332031 1274.328125c-20.578125 18.65625-44.691406 27.921875-72.339843 27.800781-27.648438-.117187-50.511719-10.148437-68.585938-30.085937-18.078125-19.933594-25.828125-43.664063-23.253906-71.195313 2.578125-27.527344 14.15625-50.621094 34.730468-69.28125 20.578126-18.65625 44.613282-27.851562 72.097657-27.582031 27.488281.269531 50.269531 10.367187 68.347656 30.304687 18.078125 19.933594 25.910156 43.59375 23.488281 70.976563-2.414062 27.382813-13.910156 50.402344-34.484375 69.0625m361.546875 316.347656c16.617188 18.328125 43.859375 47.238281 81.714844 86.730469 37.863281 39.492188 65.101562 68.402344 81.71875 86.730469 16.910156 18.644531 24.566406 39.6875 22.953125 63.113281-1.605469 23.425781-12.054687 43.886719-31.34375 61.378906-19.292969 17.496094-40.671875 25.898438-64.148437 25.207032-23.472657-.6875-43.664063-10.351563-60.574219-29-16.617188-18.328126-43.855469-47.238282-81.71875-86.726563-37.855469-39.496094-65.097657-68.40625-81.714844-86.734375-25.949219-28.617188-56.84375-65.921875-92.699219-111.921875-35.851562-46-66.75-83.308594-92.699218-111.925781-16.90625-18.648438-24.5625-39.6875-22.953126-63.113282 1.609376-23.425781 12.054688-43.890624 31.347657-61.382812s40.671875-25.898438 64.148437-25.207031c23.472656.6875 43.664063 10.355469 60.570313 29.003906 25.949219 28.617187 56.847656 65.921875 92.699219 111.925781 35.855468 46 66.75 83.304688 92.699218 111.921875M2145.183594 149.386719l484.675781 104.789062c172.082031 37.203125 281.582031 207.117188 244.378906 379.199219l-104.792969 484.675781c-37.203124 172.078125-207.117187 281.582031-379.199218 244.375l-484.671875-104.789062c-172.082031-37.207031-281.582031-207.121094-244.378907-379.199219l104.792969-484.675781c37.203125-172.082031 207.117188-281.582031 379.195313-244.375m0 0"/><path fill="#545454" d="M2224.300781 1128.613281C2130.972656 1108.4375 2058.433594 1065 2006.6875 998.304688c-54.492188-70.398438-71.835938-151.414063-52.027344-243.046876 18.253906-84.417968 67.011719-165.128906 146.269532-242.136718 90.074218-87.988282 180.078124-122.257813 270.015624-102.8125 44.121094 9.539062 93.09375 32.558594 146.925782 69.066406 65.363281 44.773438 93.917968 86.25 85.664062 124.429688-4.492187 20.785156-15.695312 37.679687-33.605468 50.683593-19.03125 14.09375-40.640626 18.523438-64.820313 13.296875-18.238281-3.945312-38.0625-18.558594-59.464844-43.828125-21.398437-25.277343-57.765625-43.464843-109.097656-54.5625-32.664063-7.0625-75.011719 17.308594-127.042969 73.109375-49.875 54.050782-79.671875 103.558594-89.394531 148.527344-9.628906 44.542969-1.074219 83.027344 25.660156 115.449219 25.316407 30.785156 63.007813 51.589843 113.0625 62.414062 28.421875 6.144531 65.550781 2.847657 111.375-9.890625 45.828125-12.738281 74.257813-17.914062 85.289063-15.53125 22.90625 4.953125 40.738281 17.46875 53.496094 37.542969 12.753906 20.078125 16.839843 40.71875 12.253906 61.933594-7.15625 33.089843-50.367188 58.382812-129.640625 75.878906-70.8125 15.328125-126.578125 18.59375-167.304688 9.785156m-574.464843 1105.871094 222.804687-443c79.105469-157.28125 271.023437-220.753906 428.308594-141.648437l443 222.804687c157.28125 79.105469 220.753906 271.023437 141.648437 428.308594l-222.804687 443c-79.105469 157.28125-271.023438 220.753906-428.308594 141.648437l-443-222.804687c-157.28125-79.105469-220.753906-271.023438-141.648437-428.308594m0 0"/><path fill="#BD9354" d="M2134.847656 2589.027344c-92.675781-46.609375-157.359375-106.835938-194.066406-180.683594-40.570312-81.617188-38.523438-166.824219 6.132812-255.617188 49.339844-98.101562 116.859376-168.113281 202.558594-210.03125 95.21875-46.359374 191.488282-45.066406 288.816406 3.882813 67.46875 33.933594 118.039063 72.972656 151.707032 117.113281 44.117187 58.140625 50.964844 117.453125 20.542968 177.945313-21.453124 42.652343-64.3125 68.464843-128.582031 77.433593-29.320312 4.199219-84.058593 4.363282-164.210937.488282l-239.59375-11.921875c8.472656 29.523437 23.355468 55.957031 44.652344 79.300781 21.296874 23.34375 49.003906 43.59375 83.125 60.757812 51.960937 26.132813 101.332031 37.601563 148.117187 34.414063 41.742187-2.8125 72.300781.652344 91.691406 10.40625 40.328125 20.28125 50.640625 50 30.941407 89.164063-22.230469 44.203124-72.742188 63.980468-151.539063 59.332031-65.988281-4.039063-129.417969-21.367188-190.292969-51.984375m232.648438-501.695313c-36.058594-18.136719-72.929688-21.621093-110.613282-10.449219-37.683593 11.167969-76.371093 36.894532-116.0625 77.171876 53.375 3.039062 106.453126 6.171874 159.242188 9.402343 64.238281 2.675781 116.941406 1.726563 158.101562-2.832031-18.566406-27.800781-48.789062-52.230469-90.667968-73.292969m88.574218-1015.050781"/></g></defs><use xlink:href="#b"/></svg>
